<mxfile host="app.diagrams.net" modified="2023-04-14T19:37:41.310Z" agent="Mozilla/5.0 (X11; Ubuntu; Linux x86_64; rv:109.0) Gecko/20100101 Firefox/112.0" etag="CDp-3hQBVJN1ZuCsH9-q" version="21.1.8">
  <diagram id="hlvisfvuWRFe17uFSuDf" name="Page-1">
    <mxGraphModel dx="1135" dy="638" grid="1" gridSize="10" guides="1" tooltips="1" connect="1" arrows="1" fold="1" page="1" pageScale="1" pageWidth="850" pageHeight="1100" math="0" shadow="0">
      <root>
        <mxCell id="0" />
        <mxCell id="1" parent="0" />
        <mxCell id="zDrE7s1ACpcQbbRIbE0_-3" value="" style="rounded=1;whiteSpace=wrap;html=1;fillColor=#d5e8d4;strokeColor=#82b366;" vertex="1" parent="1">
          <mxGeometry x="279" y="502.5" width="111.5" height="45" as="geometry" />
        </mxCell>
        <mxCell id="zDrE7s1ACpcQbbRIbE0_-4" value="" style="rounded=1;whiteSpace=wrap;html=1;fillColor=#d5e8d4;strokeColor=#82b366;" vertex="1" parent="1">
          <mxGeometry x="370" y="557.5" width="111.5" height="45" as="geometry" />
        </mxCell>
        <mxCell id="zDrE7s1ACpcQbbRIbE0_-1" value="" style="rounded=1;whiteSpace=wrap;html=1;fillColor=#d5e8d4;strokeColor=#82b366;" vertex="1" parent="1">
          <mxGeometry x="456.5" y="502.5" width="111.5" height="45" as="geometry" />
        </mxCell>
        <mxCell id="JsNyH0pSIVGMAEf0iLmD-27" style="edgeStyle=orthogonalEdgeStyle;rounded=0;orthogonalLoop=1;jettySize=auto;html=1;entryX=0;entryY=0.5;entryDx=0;entryDy=0;fontSize=13;" parent="1" source="JsNyH0pSIVGMAEf0iLmD-7" target="JsNyH0pSIVGMAEf0iLmD-11" edge="1">
          <mxGeometry relative="1" as="geometry" />
        </mxCell>
        <mxCell id="JsNyH0pSIVGMAEf0iLmD-7" value="" style="rounded=1;whiteSpace=wrap;html=1;fillColor=#dae8fc;strokeColor=#6c8ebf;" parent="1" vertex="1">
          <mxGeometry x="334.75" y="282.5" width="195" height="185" as="geometry" />
        </mxCell>
        <mxCell id="JsNyH0pSIVGMAEf0iLmD-8" value="&lt;div&gt;&lt;font face=&quot;Verdana&quot;&gt;&lt;b&gt;Subgroup Error &lt;br&gt;&lt;/b&gt;&lt;/font&gt;&lt;/div&gt;&lt;div&gt;&lt;font face=&quot;Verdana&quot;&gt;&lt;b&gt;Analyzer&lt;/b&gt;&lt;/font&gt;&lt;/div&gt;" style="rounded=0;whiteSpace=wrap;html=1;fillColor=#f5f5f5;fontColor=#333333;strokeColor=#666666;" parent="1" vertex="1">
          <mxGeometry x="349.5" y="407.5" width="165.5" height="40" as="geometry" />
        </mxCell>
        <mxCell id="JsNyH0pSIVGMAEf0iLmD-9" value="&lt;div&gt;&lt;font face=&quot;Verdana&quot;&gt;&lt;b&gt;Subgroup Variance &lt;br&gt;&lt;/b&gt;&lt;/font&gt;&lt;/div&gt;&lt;div&gt;&lt;font face=&quot;Verdana&quot;&gt;&lt;b&gt;Analyzer&lt;/b&gt;&lt;/font&gt;&lt;/div&gt;" style="rounded=0;whiteSpace=wrap;html=1;fillColor=#f5f5f5;fontColor=#333333;strokeColor=#666666;" parent="1" vertex="1">
          <mxGeometry x="349.5" y="347.5" width="165.5" height="40" as="geometry" />
        </mxCell>
        <mxCell id="JsNyH0pSIVGMAEf0iLmD-28" style="edgeStyle=orthogonalEdgeStyle;rounded=0;orthogonalLoop=1;jettySize=auto;html=1;entryX=0;entryY=0.5;entryDx=0;entryDy=0;fontSize=13;" parent="1" source="JsNyH0pSIVGMAEf0iLmD-11" target="JsNyH0pSIVGMAEf0iLmD-17" edge="1">
          <mxGeometry relative="1" as="geometry" />
        </mxCell>
        <mxCell id="JsNyH0pSIVGMAEf0iLmD-11" value="&lt;font face=&quot;Verdana&quot;&gt;&lt;b&gt;Subgroup Metrics Matrix&lt;/b&gt;&lt;/font&gt;" style="rounded=0;whiteSpace=wrap;html=1;fillColor=#e1d5e7;strokeColor=#9673a6;" parent="1" vertex="1">
          <mxGeometry x="590" y="345" width="120" height="60" as="geometry" />
        </mxCell>
        <mxCell id="NrY6HeF-G9XXoupHhg0z-28" style="edgeStyle=orthogonalEdgeStyle;rounded=0;orthogonalLoop=1;jettySize=auto;html=1;entryX=0;entryY=0.5;entryDx=0;entryDy=0;fontSize=14;" parent="1" source="JsNyH0pSIVGMAEf0iLmD-17" target="JsNyH0pSIVGMAEf0iLmD-20" edge="1">
          <mxGeometry relative="1" as="geometry" />
        </mxCell>
        <mxCell id="NrY6HeF-G9XXoupHhg0z-44" style="edgeStyle=orthogonalEdgeStyle;rounded=0;orthogonalLoop=1;jettySize=auto;html=1;entryX=0;entryY=0.5;entryDx=0;entryDy=0;fontSize=14;" parent="1" source="JsNyH0pSIVGMAEf0iLmD-17" target="JsNyH0pSIVGMAEf0iLmD-19" edge="1">
          <mxGeometry relative="1" as="geometry" />
        </mxCell>
        <mxCell id="NrY6HeF-G9XXoupHhg0z-45" style="edgeStyle=orthogonalEdgeStyle;rounded=0;orthogonalLoop=1;jettySize=auto;html=1;entryX=0;entryY=0.5;entryDx=0;entryDy=0;fontSize=14;" parent="1" source="JsNyH0pSIVGMAEf0iLmD-17" target="JsNyH0pSIVGMAEf0iLmD-21" edge="1">
          <mxGeometry relative="1" as="geometry" />
        </mxCell>
        <mxCell id="JsNyH0pSIVGMAEf0iLmD-17" value="" style="rounded=1;whiteSpace=wrap;html=1;fillColor=#dae8fc;strokeColor=#6c8ebf;" parent="1" vertex="1">
          <mxGeometry x="770" y="335" width="160" height="80" as="geometry" />
        </mxCell>
        <mxCell id="NrY6HeF-G9XXoupHhg0z-46" style="edgeStyle=orthogonalEdgeStyle;rounded=0;orthogonalLoop=1;jettySize=auto;html=1;entryX=0;entryY=0.5;entryDx=0;entryDy=0;fontSize=14;" parent="1" source="JsNyH0pSIVGMAEf0iLmD-19" target="NrY6HeF-G9XXoupHhg0z-18" edge="1">
          <mxGeometry relative="1" as="geometry" />
        </mxCell>
        <mxCell id="JsNyH0pSIVGMAEf0iLmD-19" value="&lt;font face=&quot;Verdana&quot;&gt;&lt;b&gt;Subgroup Metrics Matrix&lt;/b&gt;&lt;/font&gt;" style="rounded=0;whiteSpace=wrap;html=1;fillColor=#e1d5e7;strokeColor=#9673a6;" parent="1" vertex="1">
          <mxGeometry x="995" y="260" width="120" height="60" as="geometry" />
        </mxCell>
        <mxCell id="NrY6HeF-G9XXoupHhg0z-29" style="edgeStyle=orthogonalEdgeStyle;rounded=0;orthogonalLoop=1;jettySize=auto;html=1;entryX=0;entryY=0.5;entryDx=0;entryDy=0;fontSize=14;" parent="1" source="JsNyH0pSIVGMAEf0iLmD-20" target="NrY6HeF-G9XXoupHhg0z-18" edge="1">
          <mxGeometry relative="1" as="geometry" />
        </mxCell>
        <mxCell id="JsNyH0pSIVGMAEf0iLmD-20" value="&lt;font face=&quot;Verdana&quot;&gt;&lt;b&gt;Group&lt;/b&gt; &lt;b&gt;Fairness Metrics&lt;/b&gt;&lt;/font&gt;" style="rounded=0;whiteSpace=wrap;html=1;fillColor=#e1d5e7;strokeColor=#9673a6;" parent="1" vertex="1">
          <mxGeometry x="995" y="345" width="120" height="60" as="geometry" />
        </mxCell>
        <mxCell id="NrY6HeF-G9XXoupHhg0z-47" style="edgeStyle=orthogonalEdgeStyle;rounded=0;orthogonalLoop=1;jettySize=auto;html=1;entryX=0;entryY=0.5;entryDx=0;entryDy=0;fontSize=14;" parent="1" source="JsNyH0pSIVGMAEf0iLmD-21" target="NrY6HeF-G9XXoupHhg0z-18" edge="1">
          <mxGeometry relative="1" as="geometry" />
        </mxCell>
        <mxCell id="JsNyH0pSIVGMAEf0iLmD-21" value="&lt;font face=&quot;Verdana&quot;&gt;&lt;b&gt;Group&lt;/b&gt; &lt;b&gt;Variance Metrics&lt;/b&gt;&lt;/font&gt;" style="rounded=0;whiteSpace=wrap;html=1;fillColor=#e1d5e7;strokeColor=#9673a6;" parent="1" vertex="1">
          <mxGeometry x="995" y="430" width="120" height="60" as="geometry" />
        </mxCell>
        <mxCell id="NrY6HeF-G9XXoupHhg0z-54" style="edgeStyle=none;rounded=0;orthogonalLoop=1;jettySize=auto;html=1;entryX=0.335;entryY=1.001;entryDx=0;entryDy=0;entryPerimeter=0;fontSize=14;" parent="1" source="NrY6HeF-G9XXoupHhg0z-6" target="JsNyH0pSIVGMAEf0iLmD-7" edge="1">
          <mxGeometry relative="1" as="geometry" />
        </mxCell>
        <mxCell id="NrY6HeF-G9XXoupHhg0z-6" value="&lt;font face=&quot;Verdana&quot;&gt;&lt;b&gt;&lt;font style=&quot;font-size: 12px;&quot;&gt;Base Flow &lt;br&gt;Dataset &lt;/font&gt;&lt;/b&gt;&lt;/font&gt;" style="text;html=1;align=center;verticalAlign=middle;resizable=0;points=[];autosize=1;strokeColor=none;fillColor=none;fontSize=7;" parent="1" vertex="1">
          <mxGeometry x="289.75" y="505" width="90" height="40" as="geometry" />
        </mxCell>
        <mxCell id="NrY6HeF-G9XXoupHhg0z-55" style="edgeStyle=none;rounded=0;orthogonalLoop=1;jettySize=auto;html=1;entryX=0.476;entryY=0.998;entryDx=0;entryDy=0;entryPerimeter=0;fontSize=14;" parent="1" source="NrY6HeF-G9XXoupHhg0z-11" target="JsNyH0pSIVGMAEf0iLmD-7" edge="1">
          <mxGeometry relative="1" as="geometry" />
        </mxCell>
        <mxCell id="NrY6HeF-G9XXoupHhg0z-11" value="&lt;font face=&quot;Verdana&quot;&gt;&lt;b&gt;&lt;font style=&quot;font-size: 12px;&quot;&gt;Config Yaml&lt;/font&gt;&lt;/b&gt;&lt;/font&gt;" style="text;html=1;align=center;verticalAlign=middle;resizable=0;points=[];autosize=1;strokeColor=none;fillColor=none;fontSize=7;" parent="1" vertex="1">
          <mxGeometry x="376" y="565" width="100" height="30" as="geometry" />
        </mxCell>
        <mxCell id="NrY6HeF-G9XXoupHhg0z-56" style="edgeStyle=none;rounded=0;orthogonalLoop=1;jettySize=auto;html=1;entryX=0.617;entryY=0.998;entryDx=0;entryDy=0;entryPerimeter=0;fontSize=14;" parent="1" source="NrY6HeF-G9XXoupHhg0z-13" target="JsNyH0pSIVGMAEf0iLmD-7" edge="1">
          <mxGeometry relative="1" as="geometry" />
        </mxCell>
        <mxCell id="NrY6HeF-G9XXoupHhg0z-13" value="&lt;font face=&quot;Verdana&quot;&gt;&lt;b&gt;&lt;font style=&quot;font-size: 12px;&quot;&gt;Models Config&lt;/font&gt;&lt;/b&gt;&lt;/font&gt;" style="text;html=1;align=center;verticalAlign=middle;resizable=1;points=[];autosize=1;strokeColor=none;fillColor=none;fontSize=7;movable=1;rotatable=1;deletable=1;editable=1;connectable=1;" parent="1" vertex="1">
          <mxGeometry x="452.25" y="510" width="120" height="30" as="geometry" />
        </mxCell>
        <mxCell id="NrY6HeF-G9XXoupHhg0z-15" value="&lt;font style=&quot;font-size: 14px;&quot; face=&quot;Verdana&quot;&gt;&lt;b&gt;Metrics Computation&lt;br&gt;Interface&lt;/b&gt;&lt;/font&gt;" style="text;html=1;align=center;verticalAlign=middle;resizable=0;points=[];autosize=1;strokeColor=none;fillColor=none;fontSize=12;" parent="1" vertex="1">
          <mxGeometry x="337.25" y="292.5" width="190" height="50" as="geometry" />
        </mxCell>
        <mxCell id="NrY6HeF-G9XXoupHhg0z-17" value="&lt;font style=&quot;font-size: 14px;&quot; face=&quot;Verdana&quot;&gt;&lt;b&gt;Metrics Composer&lt;/b&gt;&lt;/font&gt;" style="text;html=1;align=center;verticalAlign=middle;resizable=0;points=[];autosize=1;strokeColor=none;fillColor=none;fontSize=14;" parent="1" vertex="1">
          <mxGeometry x="765" y="360" width="170" height="30" as="geometry" />
        </mxCell>
        <mxCell id="NrY6HeF-G9XXoupHhg0z-59" style="edgeStyle=none;rounded=0;orthogonalLoop=1;jettySize=auto;html=1;entryX=0.5;entryY=0;entryDx=0;entryDy=0;fontSize=14;" parent="1" source="NrY6HeF-G9XXoupHhg0z-18" target="NrY6HeF-G9XXoupHhg0z-57" edge="1">
          <mxGeometry relative="1" as="geometry" />
        </mxCell>
        <mxCell id="NrY6HeF-G9XXoupHhg0z-18" value="" style="rounded=1;whiteSpace=wrap;html=1;fillColor=#dae8fc;strokeColor=#6c8ebf;" parent="1" vertex="1">
          <mxGeometry x="1190" y="335" width="160" height="80" as="geometry" />
        </mxCell>
        <mxCell id="NrY6HeF-G9XXoupHhg0z-19" value="&lt;font face=&quot;Verdana&quot;&gt;&lt;b&gt;Metrics Visualizer&lt;/b&gt;&lt;/font&gt;" style="text;html=1;align=center;verticalAlign=middle;resizable=0;points=[];autosize=1;strokeColor=none;fillColor=none;fontSize=14;" parent="1" vertex="1">
          <mxGeometry x="1185" y="360" width="170" height="30" as="geometry" />
        </mxCell>
        <mxCell id="NrY6HeF-G9XXoupHhg0z-48" value="" style="sketch=0;html=1;dashed=0;whitespace=wrap;fillColor=#2875E2;strokeColor=#ffffff;points=[[0.005,0.63,0],[0.1,0.2,0],[0.9,0.2,0],[0.5,0,0],[0.995,0.63,0],[0.72,0.99,0],[0.5,1,0],[0.28,0.99,0]];verticalLabelPosition=bottom;align=center;verticalAlign=top;shape=mxgraph.kubernetes.icon;prIcon=user;rounded=0;fontSize=14;" parent="1" vertex="1">
          <mxGeometry x="284.75" y="580" width="50" height="48" as="geometry" />
        </mxCell>
        <mxCell id="NrY6HeF-G9XXoupHhg0z-50" value="&lt;font face=&quot;Verdana&quot;&gt;Data Scientist&lt;/font&gt;" style="text;html=1;align=center;verticalAlign=middle;resizable=0;points=[];autosize=1;strokeColor=none;fillColor=none;fontSize=14;" parent="1" vertex="1">
          <mxGeometry x="250" y="635" width="120" height="30" as="geometry" />
        </mxCell>
        <mxCell id="NrY6HeF-G9XXoupHhg0z-57" value="&lt;font face=&quot;Verdana&quot;&gt;&lt;b&gt;Final Report&lt;/b&gt; &lt;b&gt;&amp;amp;&lt;/b&gt;&lt;br&gt;&lt;b&gt;Visualizations&lt;/b&gt;&lt;/font&gt;" style="rounded=0;whiteSpace=wrap;html=1;fillColor=#e1d5e7;strokeColor=#9673a6;" parent="1" vertex="1">
          <mxGeometry x="1210" y="505" width="120" height="60" as="geometry" />
        </mxCell>
      </root>
    </mxGraphModel>
  </diagram>
</mxfile>
